<?xml version="1.0" encoding="UTF-8" standalone="no"?>
<!DOCTYPE svg PUBLIC "-//W3C//DTD SVG 1.1//EN"
 "http://www.w3.org/Graphics/SVG/1.1/DTD/svg11.dtd">
<!-- Generated by graphviz version 14.1.2 (0)
 -->
<!-- Title: G Pages: 1 -->
<svg width="1316pt" height="689pt"
 viewBox="0.00 0.00 1316.00 689.00" xmlns="http://www.w3.org/2000/svg" xmlns:xlink="http://www.w3.org/1999/xlink">
<g id="graph0" class="graph" transform="scale(1 1) rotate(0) translate(4 685)">
<title>G</title>
<polygon fill="white" stroke="none" points="-4,4 -4,-685 1312.29,-685 1312.29,4 -4,4"/>
<g id="clust1" class="cluster">
<title>cluster_root</title>
<g id="a_clust1"><a xlink:title="eventq_index=0&#10;full_system=false&#10;sim_quantum=0&#10;time_sync_enable=false&#10;time_sync_period=100000000000&#10;time_sync_spin_threshold=100000000">
<path fill="#bab6ae" stroke="#000000" d="M26.29,-8C26.29,-8 1288.29,-8 1288.29,-8 1294.29,-8 1300.29,-14 1300.29,-20 1300.29,-20 1300.29,-661 1300.29,-661 1300.29,-667 1294.29,-673 1288.29,-673 1288.29,-673 26.29,-673 26.29,-673 20.29,-673 14.29,-667 14.29,-661 14.29,-661 14.29,-20 14.29,-20 14.29,-14 20.29,-8 26.29,-8"/>
<text xml:space="preserve" text-anchor="middle" x="657.29" y="-655.7" font-family="Arial" font-size="14.00" fill="#000000">root </text>
<text xml:space="preserve" text-anchor="middle" x="657.29" y="-639.95" font-family="Arial" font-size="14.00" fill="#000000">: Root</text>
</a>
</g>
</g>
<g id="clust2" class="cluster">
<title>cluster_system</title>
<g id="a_clust2"><a xlink:title="auto_unlink_shared_backstore=false&#10;cache_line_size=64&#10;eventq_index=0&#10;exit_on_work_items=false&#10;external_memory_ranges=&#10;init_param=0&#10;m5ops_base=0&#10;mem_mode=timing&#10;mem_ranges=0:536870912&#10;memories=system.mem_ctrls.dram&#10;mmap_using_noreserve=false&#10;multi_thread=false&#10;&#10;um_work_ids=16&#10;&#13;eadfile=&#10;&#13;edirect_paths=system.redirect_paths0 system.redirect_paths1 system.redirect_paths2&#10;shadow_rom_ranges=&#10;shared_backstore=&#10;symbolfile=&#10;thermal_components=&#10;thermal_model=Null&#10;work_begin_ckpt_count=0&#10;work_begin_cpu_id_exit=&#45;1&#10;work_begin_exit_count=0&#10;work_cpus_ckpt_count=0&#10;work_end_ckpt_count=0&#10;work_end_exit_count=0&#10;work_item_id=&#45;1&#10;workload=system.workload">
<path fill="#e4e7eb" stroke="#000000" d="M34.29,-16C34.29,-16 1280.29,-16 1280.29,-16 1286.29,-16 1292.29,-22 1292.29,-28 1292.29,-28 1292.29,-613.5 1292.29,-613.5 1292.29,-619.5 1286.29,-625.5 1280.29,-625.5 1280.29,-625.5 34.29,-625.5 34.29,-625.5 28.29,-625.5 22.29,-619.5 22.29,-613.5 22.29,-613.5 22.29,-28 22.29,-28 22.29,-22 28.29,-16 34.29,-16"/>
<text xml:space="preserve" text-anchor="middle" x="657.29" y="-608.2" font-family="Arial" font-size="14.00" fill="#000000">system </text>
<text xml:space="preserve" text-anchor="middle" x="657.29" y="-592.45" font-family="Arial" font-size="14.00" fill="#000000">: System</text>
</a>
</g>
</g>
<g id="clust4" class="cluster">
<title>cluster_system_cpu</title>
<g id="a_clust4"><a xlink:title="branchPred=Null&#10;checker=Null&#10;clk_domain=system.cpu_clk_domain&#10;cpu_id=0&#10;decoder=system.cpu.decoder&#10;do_checkpoint_insts=true&#10;do_statistics_insts=true&#10;eventq_index=0&#10;function_trace=false&#10;function_trace_start=0&#10;interrupts=system.cpu.interrupts&#10;isa=system.cpu.isa&#10;max_insts_all_threads=0&#10;max_insts_any_thread=0&#10;mmu=system.cpu.mmu&#10;&#10;umThreads=1&#10;power_gating_on_idle=false&#10;power_model=&#10;power_state=system.cpu.power_state&#10;progress_interval=0&#10;pwr_gating_latency=300&#10;simpoint_start_insts=&#10;socket_id=0&#10;switched_out=false&#10;syscallRetryLatency=10000&#10;system=system&#10;tracer=system.cpu.tracer&#10;workload=system.cpu.workload">
<path fill="#bbc6d9" stroke="#000000" d="M413.29,-24C413.29,-24 1272.29,-24 1272.29,-24 1278.29,-24 1284.29,-30 1284.29,-36 1284.29,-36 1284.29,-384 1284.29,-384 1284.29,-390 1278.29,-396 1272.29,-396 1272.29,-396 413.29,-396 413.29,-396 407.29,-396 401.29,-390 401.29,-384 401.29,-384 401.29,-36 401.29,-36 401.29,-30 407.29,-24 413.29,-24"/>
<text xml:space="preserve" text-anchor="middle" x="842.79" y="-378.7" font-family="Arial" font-size="14.00" fill="#000000">cpu </text>
<text xml:space="preserve" text-anchor="middle" x="842.79" y="-362.95" font-family="Arial" font-size="14.00" fill="#000000">: X86TimingSimpleCPU</text>
</a>
</g>
</g>
<g id="clust5" class="cluster">
<title>cluster_system_cpu_mmu</title>
<g id="a_clust5"><a xlink:title="dtb=system.cpu.mmu.dtb&#10;eventq_index=0&#10;itb=system.cpu.mmu.itb">
<path fill="#bab6ae" stroke="#000000" d="M421.29,-146C421.29,-146 753.29,-146 753.29,-146 759.29,-146 765.29,-152 765.29,-158 765.29,-158 765.29,-336.5 765.29,-336.5 765.29,-342.5 759.29,-348.5 753.29,-348.5 753.29,-348.5 421.29,-348.5 421.29,-348.5 415.29,-348.5 409.29,-342.5 409.29,-336.5 409.29,-336.5 409.29,-158 409.29,-158 409.29,-152 415.29,-146 421.29,-146"/>
<text xml:space="preserve" text-anchor="middle" x="587.29" y="-331.2" font-family="Arial" font-size="14.00" fill="#000000">mmu </text>
<text xml:space="preserve" text-anchor="middle" x="587.29" y="-315.45" font-family="Arial" font-size="14.00" fill="#000000">: X86MMU</text>
</a>
</g>
</g>
<g id="clust6" class="cluster">
<title>cluster_system_cpu_mmu_itb</title>
<g id="a_clust6"><a xlink:title="entry_type=instruction&#10;eventq_index=0&#10;&#10;ext_level=Null&#10;size=64&#10;system=system&#10;walker=system.cpu.mmu.itb.walker">
<path fill="#9f9c95" stroke="#000000" d="M429.29,-154C429.29,-154 571.29,-154 571.29,-154 577.29,-154 583.29,-160 583.29,-166 583.29,-166 583.29,-289 583.29,-289 583.29,-295 577.29,-301 571.29,-301 571.29,-301 429.29,-301 429.29,-301 423.29,-301 417.29,-295 417.29,-289 417.29,-289 417.29,-166 417.29,-166 417.29,-160 423.29,-154 429.29,-154"/>
<text xml:space="preserve" text-anchor="middle" x="500.29" y="-283.7" font-family="Arial" font-size="14.00" fill="#000000">itb </text>
<text xml:space="preserve" text-anchor="middle" x="500.29" y="-267.95" font-family="Arial" font-size="14.00" fill="#000000">: X86TLB</text>
</a>
</g>
</g>
<g id="clust7" class="cluster">
<title>cluster_system_cpu_mmu_itb_walker</title>
<g id="a_clust7"><a xlink:title="clk_domain=system.cpu_clk_domain&#10;eventq_index=0&#10;&#10;um_squash_per_cycle=4&#10;power_model=&#10;power_state=system.cpu.mmu.itb.walker.power_state&#10;system=system">
<path fill="#84827c" stroke="#000000" d="M437.29,-162C437.29,-162 563.29,-162 563.29,-162 569.29,-162 575.29,-168 575.29,-174 575.29,-174 575.29,-241.5 575.29,-241.5 575.29,-247.5 569.29,-253.5 563.29,-253.5 563.29,-253.5 437.29,-253.5 437.29,-253.5 431.29,-253.5 425.29,-247.5 425.29,-241.5 425.29,-241.5 425.29,-174 425.29,-174 425.29,-168 431.29,-162 437.29,-162"/>
<text xml:space="preserve" text-anchor="middle" x="500.29" y="-236.2" font-family="Arial" font-size="14.00" fill="#000000">walker </text>
<text xml:space="preserve" text-anchor="middle" x="500.29" y="-220.45" font-family="Arial" font-size="14.00" fill="#000000">: X86PagetableWalker</text>
</a>
</g>
</g>
<g id="clust9" class="cluster">
<title>cluster_system_cpu_mmu_dtb</title>
<g id="a_clust9"><a xlink:title="entry_type=data&#10;eventq_index=0&#10;&#10;ext_level=Null&#10;size=64&#10;system=system&#10;walker=system.cpu.mmu.dtb.walker">
<path fill="#9f9c95" stroke="#000000" d="M603.29,-154C603.29,-154 745.29,-154 745.29,-154 751.29,-154 757.29,-160 757.29,-166 757.29,-166 757.29,-289 757.29,-289 757.29,-295 751.29,-301 745.29,-301 745.29,-301 603.29,-301 603.29,-301 597.29,-301 591.29,-295 591.29,-289 591.29,-289 591.29,-166 591.29,-166 591.29,-160 597.29,-154 603.29,-154"/>
<text xml:space="preserve" text-anchor="middle" x="674.29" y="-283.7" font-family="Arial" font-size="14.00" fill="#000000">dtb </text>
<text xml:space="preserve" text-anchor="middle" x="674.29" y="-267.95" font-family="Arial" font-size="14.00" fill="#000000">: X86TLB</text>
</a>
</g>
</g>
<g id="clust10" class="cluster">
<title>cluster_system_cpu_mmu_dtb_walker</title>
<g id="a_clust10"><a xlink:title="clk_domain=system.cpu_clk_domain&#10;eventq_index=0&#10;&#10;um_squash_per_cycle=4&#10;power_model=&#10;power_state=system.cpu.mmu.dtb.walker.power_state&#10;system=system">
<path fill="#84827c" stroke="#000000" d="M611.29,-162C611.29,-162 737.29,-162 737.29,-162 743.29,-162 749.29,-168 749.29,-174 749.29,-174 749.29,-241.5 749.29,-241.5 749.29,-247.5 743.29,-253.5 737.29,-253.5 737.29,-253.5 611.29,-253.5 611.29,-253.5 605.29,-253.5 599.29,-247.5 599.29,-241.5 599.29,-241.5 599.29,-174 599.29,-174 599.29,-168 605.29,-162 611.29,-162"/>
<text xml:space="preserve" text-anchor="middle" x="674.29" y="-236.2" font-family="Arial" font-size="14.00" fill="#000000">walker </text>
<text xml:space="preserve" text-anchor="middle" x="674.29" y="-220.45" font-family="Arial" font-size="14.00" fill="#000000">: X86PagetableWalker</text>
</a>
</g>
</g>
<g id="clust18" class="cluster">
<title>cluster_system_cpu_icache</title>
<g id="a_clust18"><a xlink:title="addr_ranges=0:18446744073709551615&#10;assoc=2&#10;clk_domain=system.cpu_clk_domain&#10;clusivity=mostly_incl&#10;compressor=Null&#10;data_latency=2&#10;demand_mshr_reserve=1&#10;eventq_index=0&#10;is_read_only=true&#10;max_miss_count=0&#10;move_contractions=true&#10;mshrs=4&#10;partitioning_manager=Null&#10;power_model=&#10;power_state=system.cpu.icache.power_state&#10;prefetcher=Null&#10;&#13;eplace_expansions=true&#10;&#13;eplacement_policy=system.cpu.icache.replacement_policy&#10;&#13;esponse_latency=2&#10;sequential_access=false&#10;size=131072&#10;system=system&#10;tag_latency=2&#10;tags=system.cpu.icache.tags&#10;tgts_per_mshr=20&#10;warmup_percentage=0&#10;write_allocator=Null&#10;write_buffers=8&#10;writeback_clean=true">
<path fill="#bab6ae" stroke="#000000" d="M857.29,-32C857.29,-32 1017.29,-32 1017.29,-32 1023.29,-32 1029.29,-38 1029.29,-44 1029.29,-44 1029.29,-111.5 1029.29,-111.5 1029.29,-117.5 1023.29,-123.5 1017.29,-123.5 1017.29,-123.5 857.29,-123.5 857.29,-123.5 851.29,-123.5 845.29,-117.5 845.29,-111.5 845.29,-111.5 845.29,-44 845.29,-44 845.29,-38 851.29,-32 857.29,-32"/>
<text xml:space="preserve" text-anchor="middle" x="937.29" y="-106.2" font-family="Arial" font-size="14.00" fill="#000000">icache </text>
<text xml:space="preserve" text-anchor="middle" x="937.29" y="-90.45" font-family="Arial" font-size="14.00" fill="#000000">: L1_ICache</text>
</a>
</g>
</g>
<g id="clust24" class="cluster">
<title>cluster_system_cpu_dcache</title>
<g id="a_clust24"><a xlink:title="addr_ranges=0:18446744073709551615&#10;assoc=2&#10;clk_domain=system.cpu_clk_domain&#10;clusivity=mostly_incl&#10;compressor=Null&#10;data_latency=2&#10;demand_mshr_reserve=1&#10;eventq_index=0&#10;is_read_only=false&#10;max_miss_count=0&#10;move_contractions=true&#10;mshrs=4&#10;partitioning_manager=Null&#10;power_model=&#10;power_state=system.cpu.dcache.power_state&#10;prefetcher=Null&#10;&#13;eplace_expansions=true&#10;&#13;eplacement_policy=system.cpu.dcache.replacement_policy&#10;&#13;esponse_latency=2&#10;sequential_access=false&#10;size=131072&#10;system=system&#10;tag_latency=2&#10;tags=system.cpu.dcache.tags&#10;tgts_per_mshr=20&#10;warmup_percentage=0&#10;write_allocator=Null&#10;write_buffers=8&#10;writeback_clean=false">
<path fill="#bab6ae" stroke="#000000" d="M1075.29,-32C1075.29,-32 1235.29,-32 1235.29,-32 1241.29,-32 1247.29,-38 1247.29,-44 1247.29,-44 1247.29,-111.5 1247.29,-111.5 1247.29,-117.5 1241.29,-123.5 1235.29,-123.5 1235.29,-123.5 1075.29,-123.5 1075.29,-123.5 1069.29,-123.5 1063.29,-117.5 1063.29,-111.5 1063.29,-111.5 1063.29,-44 1063.29,-44 1063.29,-38 1069.29,-32 1075.29,-32"/>
<text xml:space="preserve" text-anchor="middle" x="1155.29" y="-106.2" font-family="Arial" font-size="14.00" fill="#000000">dcache </text>
<text xml:space="preserve" text-anchor="middle" x="1155.29" y="-90.45" font-family="Arial" font-size="14.00" fill="#000000">: L1_DCache</text>
</a>
</g>
</g>
<g id="clust30" class="cluster">
<title>cluster_system_cpu_itb_walker_cache</title>
<g id="a_clust30"><a xlink:title="addr_ranges=0:18446744073709551615&#10;assoc=2&#10;clk_domain=system.cpu_clk_domain&#10;clusivity=mostly_incl&#10;compressor=Null&#10;data_latency=2&#10;demand_mshr_reserve=1&#10;eventq_index=0&#10;is_read_only=false&#10;max_miss_count=0&#10;move_contractions=true&#10;mshrs=10&#10;partitioning_manager=Null&#10;power_model=&#10;power_state=system.cpu.itb_walker_cache.power_state&#10;prefetcher=Null&#10;&#13;eplace_expansions=true&#10;&#13;eplacement_policy=system.cpu.itb_walker_cache.replacement_policy&#10;&#13;esponse_latency=2&#10;sequential_access=false&#10;size=1024&#10;system=system&#10;tag_latency=2&#10;tags=system.cpu.itb_walker_cache.tags&#10;tgts_per_mshr=12&#10;warmup_percentage=0&#10;write_allocator=Null&#10;write_buffers=8&#10;writeback_clean=false">
<path fill="#bab6ae" stroke="#000000" d="M421.29,-32C421.29,-32 581.29,-32 581.29,-32 587.29,-32 593.29,-38 593.29,-44 593.29,-44 593.29,-111.5 593.29,-111.5 593.29,-117.5 587.29,-123.5 581.29,-123.5 581.29,-123.5 421.29,-123.5 421.29,-123.5 415.29,-123.5 409.29,-117.5 409.29,-111.5 409.29,-111.5 409.29,-44 409.29,-44 409.29,-38 415.29,-32 421.29,-32"/>
<text xml:space="preserve" text-anchor="middle" x="501.29" y="-106.2" font-family="Arial" font-size="14.00" fill="#000000">itb_walker_cache </text>
<text xml:space="preserve" text-anchor="middle" x="501.29" y="-90.45" font-family="Arial" font-size="14.00" fill="#000000">: PageTableWalkerCache</text>
</a>
</g>
</g>
<g id="clust36" class="cluster">
<title>cluster_system_cpu_dtb_walker_cache</title>
<g id="a_clust36"><a xlink:title="addr_ranges=0:18446744073709551615&#10;assoc=2&#10;clk_domain=system.cpu_clk_domain&#10;clusivity=mostly_incl&#10;compressor=Null&#10;data_latency=2&#10;demand_mshr_reserve=1&#10;eventq_index=0&#10;is_read_only=false&#10;max_miss_count=0&#10;move_contractions=true&#10;mshrs=10&#10;partitioning_manager=Null&#10;power_model=&#10;power_state=system.cpu.dtb_walker_cache.power_state&#10;prefetcher=Null&#10;&#13;eplace_expansions=true&#10;&#13;eplacement_policy=system.cpu.dtb_walker_cache.replacement_policy&#10;&#13;esponse_latency=2&#10;sequential_access=false&#10;size=1024&#10;system=system&#10;tag_latency=2&#10;tags=system.cpu.dtb_walker_cache.tags&#10;tgts_per_mshr=12&#10;warmup_percentage=0&#10;write_allocator=Null&#10;write_buffers=8&#10;writeback_clean=false">
<path fill="#bab6ae" stroke="#000000" d="M613.29,-32C613.29,-32 773.29,-32 773.29,-32 779.29,-32 785.29,-38 785.29,-44 785.29,-44 785.29,-111.5 785.29,-111.5 785.29,-117.5 779.29,-123.5 773.29,-123.5 773.29,-123.5 613.29,-123.5 613.29,-123.5 607.29,-123.5 601.29,-117.5 601.29,-111.5 601.29,-111.5 601.29,-44 601.29,-44 601.29,-38 607.29,-32 613.29,-32"/>
<text xml:space="preserve" text-anchor="middle" x="693.29" y="-106.2" font-family="Arial" font-size="14.00" fill="#000000">dtb_walker_cache </text>
<text xml:space="preserve" text-anchor="middle" x="693.29" y="-90.45" font-family="Arial" font-size="14.00" fill="#000000">: PageTableWalkerCache</text>
</a>
</g>
</g>
<g id="clust42" class="cluster">
<title>cluster_system_cpu_interrupts</title>
<g id="a_clust42"><a xlink:title="clk_domain=system.cpu.interrupts.clk_domain&#10;eventq_index=0&#10;int_latency=1000&#10;pio_latency=100000&#10;system=system">
<path fill="#bab6ae" stroke="#000000" d="M785.29,-162C785.29,-162 1060.29,-162 1060.29,-162 1066.29,-162 1072.29,-168 1072.29,-174 1072.29,-174 1072.29,-241.5 1072.29,-241.5 1072.29,-247.5 1066.29,-253.5 1060.29,-253.5 1060.29,-253.5 785.29,-253.5 785.29,-253.5 779.29,-253.5 773.29,-247.5 773.29,-241.5 773.29,-241.5 773.29,-174 773.29,-174 773.29,-168 779.29,-162 785.29,-162"/>
<text xml:space="preserve" text-anchor="middle" x="922.79" y="-236.2" font-family="Arial" font-size="14.00" fill="#000000">interrupts </text>
<text xml:space="preserve" text-anchor="middle" x="922.79" y="-220.45" font-family="Arial" font-size="14.00" fill="#000000">: X86LocalApic</text>
</a>
</g>
</g>
<g id="clust48" class="cluster">
<title>cluster_system_membus</title>
<g id="a_clust48"><a xlink:title="clk_domain=system.clk_domain&#10;eventq_index=0&#10;forward_latency=4&#10;frontend_latency=3&#10;header_latency=1&#10;max_outstanding_snoops=512&#10;max_routing_table_size=512&#10;point_of_coherency=true&#10;point_of_unification=true&#10;power_model=&#10;power_state=system.membus.power_state&#10;&#13;esponse_latency=2&#10;snoop_filter=system.membus.snoop_filter&#10;snoop_response_latency=4&#10;system=system&#10;use_default_range=false&#10;width=16">
<path fill="#6f798c" stroke="#000000" d="M763.29,-404C763.29,-404 998.29,-404 998.29,-404 1004.29,-404 1010.29,-410 1010.29,-416 1010.29,-416 1010.29,-483.5 1010.29,-483.5 1010.29,-489.5 1004.29,-495.5 998.29,-495.5 998.29,-495.5 763.29,-495.5 763.29,-495.5 757.29,-495.5 751.29,-489.5 751.29,-483.5 751.29,-483.5 751.29,-416 751.29,-416 751.29,-410 757.29,-404 763.29,-404"/>
<text xml:space="preserve" text-anchor="middle" x="880.79" y="-478.2" font-family="Arial" font-size="14.00" fill="#000000">membus </text>
<text xml:space="preserve" text-anchor="middle" x="880.79" y="-462.45" font-family="Arial" font-size="14.00" fill="#000000">: SystemXBar</text>
</a>
</g>
</g>
<g id="clust51" class="cluster">
<title>cluster_system_l2</title>
<g id="a_clust51"><a xlink:title="addr_ranges=0:18446744073709551615&#10;assoc=8&#10;clk_domain=system.cpu_clk_domain&#10;clusivity=mostly_incl&#10;compressor=Null&#10;data_latency=20&#10;demand_mshr_reserve=1&#10;eventq_index=0&#10;is_read_only=false&#10;max_miss_count=0&#10;move_contractions=true&#10;mshrs=20&#10;partitioning_manager=Null&#10;power_model=&#10;power_state=system.l2.power_state&#10;prefetcher=Null&#10;&#13;eplace_expansions=true&#10;&#13;eplacement_policy=system.l2.replacement_policy&#10;&#13;esponse_latency=20&#10;sequential_access=false&#10;size=524288&#10;system=system&#10;tag_latency=20&#10;tags=system.l2.tags&#10;tgts_per_mshr=12&#10;warmup_percentage=0&#10;write_allocator=Null&#10;write_buffers=8&#10;writeback_clean=false">
<path fill="#bab6ae" stroke="#000000" d="M42.29,-32C42.29,-32 202.29,-32 202.29,-32 208.29,-32 214.29,-38 214.29,-44 214.29,-44 214.29,-111.5 214.29,-111.5 214.29,-117.5 208.29,-123.5 202.29,-123.5 202.29,-123.5 42.29,-123.5 42.29,-123.5 36.29,-123.5 30.29,-117.5 30.29,-111.5 30.29,-111.5 30.29,-44 30.29,-44 30.29,-38 36.29,-32 42.29,-32"/>
<text xml:space="preserve" text-anchor="middle" x="122.29" y="-106.2" font-family="Arial" font-size="14.00" fill="#000000">l2 </text>
<text xml:space="preserve" text-anchor="middle" x="122.29" y="-90.45" font-family="Arial" font-size="14.00" fill="#000000">: L2Cache</text>
</a>
</g>
</g>
<g id="clust57" class="cluster">
<title>cluster_system_tol2bus</title>
<g id="a_clust57"><a xlink:title="clk_domain=system.cpu_clk_domain&#10;eventq_index=0&#10;forward_latency=0&#10;frontend_latency=1&#10;header_latency=1&#10;max_outstanding_snoops=512&#10;max_routing_table_size=512&#10;point_of_coherency=false&#10;point_of_unification=true&#10;power_model=&#10;power_state=system.tol2bus.power_state&#10;&#13;esponse_latency=1&#10;snoop_filter=system.tol2bus.snoop_filter&#10;snoop_response_latency=1&#10;system=system&#10;use_default_range=false&#10;width=32">
<path fill="#6f798c" stroke="#000000" d="M54.29,-162C54.29,-162 289.29,-162 289.29,-162 295.29,-162 301.29,-168 301.29,-174 301.29,-174 301.29,-241.5 301.29,-241.5 301.29,-247.5 295.29,-253.5 289.29,-253.5 289.29,-253.5 54.29,-253.5 54.29,-253.5 48.29,-253.5 42.29,-247.5 42.29,-241.5 42.29,-241.5 42.29,-174 42.29,-174 42.29,-168 48.29,-162 54.29,-162"/>
<text xml:space="preserve" text-anchor="middle" x="171.79" y="-236.2" font-family="Arial" font-size="14.00" fill="#000000">tol2bus </text>
<text xml:space="preserve" text-anchor="middle" x="171.79" y="-220.45" font-family="Arial" font-size="14.00" fill="#000000">: L2XBar</text>
</a>
</g>
</g>
<g id="clust60" class="cluster">
<title>cluster_system_mem_ctrls</title>
<g id="a_clust60"><a xlink:title="clk_domain=system.clk_domain&#10;command_window=10000&#10;disable_sanity_check=false&#10;dram=system.mem_ctrls.dram&#10;eventq_index=0&#10;mem_sched_policy=frfcfs&#10;min_reads_per_switch=16&#10;min_writes_per_switch=16&#10;power_model=&#10;power_state=system.mem_ctrls.power_state&#10;qos_policy=Null&#10;qos_priorities=1&#10;qos_priority_escalation=false&#10;qos_q_policy=fifo&#10;qos_requestors= &#160;&#160;&#160;&#160;&#160;&#160;&#160;&#160;&#160;&#160;&#160;&#160;&#160;&#160;&#10;qos_syncro_scheduler=false&#10;qos_turnaround_policy=Null&#10;static_backend_latency=10000&#10;static_frontend_latency=10000&#10;system=system&#10;write_high_thresh_perc=85&#10;write_low_thresh_perc=50">
<path fill="#bab6ae" stroke="#000000" d="M321.29,-162C321.29,-162 381.29,-162 381.29,-162 387.29,-162 393.29,-168 393.29,-174 393.29,-174 393.29,-241.5 393.29,-241.5 393.29,-247.5 387.29,-253.5 381.29,-253.5 381.29,-253.5 321.29,-253.5 321.29,-253.5 315.29,-253.5 309.29,-247.5 309.29,-241.5 309.29,-241.5 309.29,-174 309.29,-174 309.29,-168 315.29,-162 321.29,-162"/>
<text xml:space="preserve" text-anchor="middle" x="351.29" y="-236.2" font-family="Arial" font-size="14.00" fill="#000000">mem_ctrls </text>
<text xml:space="preserve" text-anchor="middle" x="351.29" y="-220.45" font-family="Arial" font-size="14.00" fill="#000000">: MemCtrl</text>
</a>
</g>
</g>
<!-- system_system_port -->
<g id="node1" class="node">
<title>system_system_port</title>
<path fill="#b6b8bc" stroke="#000000" d="M846.41,-578C846.41,-578 780.16,-578 780.16,-578 774.16,-578 768.16,-572 768.16,-566 768.16,-566 768.16,-554 768.16,-554 768.16,-548 774.16,-542 780.16,-542 780.16,-542 846.41,-542 846.41,-542 852.41,-542 858.41,-548 858.41,-554 858.41,-554 858.41,-566 858.41,-566 858.41,-572 852.41,-578 846.41,-578"/>
<text xml:space="preserve" text-anchor="middle" x="813.29" y="-554.58" font-family="Arial" font-size="14.00" fill="#000000">system_port</text>
</g>
<!-- system_membus_cpu_side_ports -->
<g id="node17" class="node">
<title>system_membus_cpu_side_ports</title>
<path fill="#586070" stroke="#000000" d="M855.04,-448C855.04,-448 771.54,-448 771.54,-448 765.54,-448 759.54,-442 759.54,-436 759.54,-436 759.54,-424 759.54,-424 759.54,-418 765.54,-412 771.54,-412 771.54,-412 855.04,-412 855.04,-412 861.04,-412 867.04,-418 867.04,-424 867.04,-424 867.04,-436 867.04,-436 867.04,-442 861.04,-448 855.04,-448"/>
<text xml:space="preserve" text-anchor="middle" x="813.29" y="-424.57" font-family="Arial" font-size="14.00" fill="#000000">cpu_side_ports</text>
</g>
<!-- system_system_port&#45;&gt;system_membus_cpu_side_ports -->
<g id="edge1" class="edge">
<title>system_system_port&#45;&gt;system_membus_cpu_side_ports</title>
<path fill="none" stroke="black" d="M813.29,-541.74C813.29,-520.74 813.29,-485 813.29,-459.81"/>
<polygon fill="black" stroke="black" points="816.79,-459.91 813.29,-449.91 809.79,-459.91 816.79,-459.91"/>
</g>
<!-- system_cpu_icache_port -->
<g id="node2" class="node">
<title>system_cpu_icache_port</title>
<path fill="#959ead" stroke="#000000" d="M1156.16,-206C1156.16,-206 1094.41,-206 1094.41,-206 1088.41,-206 1082.41,-200 1082.41,-194 1082.41,-194 1082.41,-182 1082.41,-182 1082.41,-176 1088.41,-170 1094.41,-170 1094.41,-170 1156.16,-170 1156.16,-170 1162.16,-170 1168.16,-176 1168.16,-182 1168.16,-182 1168.16,-194 1168.16,-194 1168.16,-200 1162.16,-206 1156.16,-206"/>
<text xml:space="preserve" text-anchor="middle" x="1125.29" y="-182.57" font-family="Arial" font-size="14.00" fill="#000000">icache_port</text>
</g>
<!-- system_cpu_icache_cpu_side -->
<g id="node6" class="node">
<title>system_cpu_icache_cpu_side</title>
<path fill="#94918b" stroke="#000000" d="M1009.29,-76C1009.29,-76 963.29,-76 963.29,-76 957.29,-76 951.29,-70 951.29,-64 951.29,-64 951.29,-52 951.29,-52 951.29,-46 957.29,-40 963.29,-40 963.29,-40 1009.29,-40 1009.29,-40 1015.29,-40 1021.29,-46 1021.29,-52 1021.29,-52 1021.29,-64 1021.29,-64 1021.29,-70 1015.29,-76 1009.29,-76"/>
<text xml:space="preserve" text-anchor="middle" x="986.29" y="-52.58" font-family="Arial" font-size="14.00" fill="#000000">cpu_side</text>
</g>
<!-- system_cpu_icache_port&#45;&gt;system_cpu_icache_cpu_side -->
<g id="edge2" class="edge">
<title>system_cpu_icache_port&#45;&gt;system_cpu_icache_cpu_side</title>
<path fill="none" stroke="black" d="M1106.54,-169.74C1082.6,-147.69 1041,-109.38 1013.55,-84.11"/>
<polygon fill="black" stroke="black" points="1016.02,-81.62 1006.29,-77.42 1011.28,-86.77 1016.02,-81.62"/>
</g>
<!-- system_cpu_dcache_port -->
<g id="node3" class="node">
<title>system_cpu_dcache_port</title>
<path fill="#959ead" stroke="#000000" d="M1264.41,-206C1264.41,-206 1198.16,-206 1198.16,-206 1192.16,-206 1186.16,-200 1186.16,-194 1186.16,-194 1186.16,-182 1186.16,-182 1186.16,-176 1192.16,-170 1198.16,-170 1198.16,-170 1264.41,-170 1264.41,-170 1270.41,-170 1276.41,-176 1276.41,-182 1276.41,-182 1276.41,-194 1276.41,-194 1276.41,-200 1270.41,-206 1264.41,-206"/>
<text xml:space="preserve" text-anchor="middle" x="1231.29" y="-182.57" font-family="Arial" font-size="14.00" fill="#000000">dcache_port</text>
</g>
<!-- system_cpu_dcache_cpu_side -->
<g id="node8" class="node">
<title>system_cpu_dcache_cpu_side</title>
<path fill="#94918b" stroke="#000000" d="M1227.29,-76C1227.29,-76 1181.29,-76 1181.29,-76 1175.29,-76 1169.29,-70 1169.29,-64 1169.29,-64 1169.29,-52 1169.29,-52 1169.29,-46 1175.29,-40 1181.29,-40 1181.29,-40 1227.29,-40 1227.29,-40 1233.29,-40 1239.29,-46 1239.29,-52 1239.29,-52 1239.29,-64 1239.29,-64 1239.29,-70 1233.29,-76 1227.29,-76"/>
<text xml:space="preserve" text-anchor="middle" x="1204.29" y="-52.58" font-family="Arial" font-size="14.00" fill="#000000">cpu_side</text>
</g>
<!-- system_cpu_dcache_port&#45;&gt;system_cpu_dcache_cpu_side -->
<g id="edge3" class="edge">
<title>system_cpu_dcache_port&#45;&gt;system_cpu_dcache_cpu_side</title>
<path fill="none" stroke="black" d="M1227.65,-169.74C1223.2,-148.65 1215.61,-112.67 1210.29,-87.46"/>
<polygon fill="black" stroke="black" points="1213.76,-86.94 1208.27,-77.88 1206.91,-88.39 1213.76,-86.94"/>
</g>
<!-- system_cpu_mmu_itb_walker_port -->
<g id="node4" class="node">
<title>system_cpu_mmu_itb_walker_port</title>
<path fill="#6a6863" stroke="#000000" d="M555.29,-206C555.29,-206 525.29,-206 525.29,-206 519.29,-206 513.29,-200 513.29,-194 513.29,-194 513.29,-182 513.29,-182 513.29,-176 519.29,-170 525.29,-170 525.29,-170 555.29,-170 555.29,-170 561.29,-170 567.29,-176 567.29,-182 567.29,-182 567.29,-194 567.29,-194 567.29,-200 561.29,-206 555.29,-206"/>
<text xml:space="preserve" text-anchor="middle" x="540.29" y="-182.57" font-family="Arial" font-size="14.00" fill="#000000">port</text>
</g>
<!-- system_cpu_itb_walker_cache_cpu_side -->
<g id="node10" class="node">
<title>system_cpu_itb_walker_cache_cpu_side</title>
<path fill="#94918b" stroke="#000000" d="M573.29,-76C573.29,-76 527.29,-76 527.29,-76 521.29,-76 515.29,-70 515.29,-64 515.29,-64 515.29,-52 515.29,-52 515.29,-46 521.29,-40 527.29,-40 527.29,-40 573.29,-40 573.29,-40 579.29,-40 585.29,-46 585.29,-52 585.29,-52 585.29,-64 585.29,-64 585.29,-70 579.29,-76 573.29,-76"/>
<text xml:space="preserve" text-anchor="middle" x="550.29" y="-52.58" font-family="Arial" font-size="14.00" fill="#000000">cpu_side</text>
</g>
<!-- system_cpu_mmu_itb_walker_port&#45;&gt;system_cpu_itb_walker_cache_cpu_side -->
<g id="edge4" class="edge">
<title>system_cpu_mmu_itb_walker_port&#45;&gt;system_cpu_itb_walker_cache_cpu_side</title>
<path fill="none" stroke="black" d="M541.64,-169.74C543.28,-148.74 546.07,-113 548.04,-87.81"/>
<polygon fill="black" stroke="black" points="551.52,-88.15 548.81,-77.91 544.54,-87.6 551.52,-88.15"/>
</g>
<!-- system_cpu_mmu_dtb_walker_port -->
<g id="node5" class="node">
<title>system_cpu_mmu_dtb_walker_port</title>
<path fill="#6a6863" stroke="#000000" d="M729.29,-206C729.29,-206 699.29,-206 699.29,-206 693.29,-206 687.29,-200 687.29,-194 687.29,-194 687.29,-182 687.29,-182 687.29,-176 693.29,-170 699.29,-170 699.29,-170 729.29,-170 729.29,-170 735.29,-170 741.29,-176 741.29,-182 741.29,-182 741.29,-194 741.29,-194 741.29,-200 735.29,-206 729.29,-206"/>
<text xml:space="preserve" text-anchor="middle" x="714.29" y="-182.57" font-family="Arial" font-size="14.00" fill="#000000">port</text>
</g>
<!-- system_cpu_dtb_walker_cache_cpu_side -->
<g id="node12" class="node">
<title>system_cpu_dtb_walker_cache_cpu_side</title>
<path fill="#94918b" stroke="#000000" d="M765.29,-76C765.29,-76 719.29,-76 719.29,-76 713.29,-76 707.29,-70 707.29,-64 707.29,-64 707.29,-52 707.29,-52 707.29,-46 713.29,-40 719.29,-40 719.29,-40 765.29,-40 765.29,-40 771.29,-40 777.29,-46 777.29,-52 777.29,-52 777.29,-64 777.29,-64 777.29,-70 771.29,-76 765.29,-76"/>
<text xml:space="preserve" text-anchor="middle" x="742.29" y="-52.58" font-family="Arial" font-size="14.00" fill="#000000">cpu_side</text>
</g>
<!-- system_cpu_mmu_dtb_walker_port&#45;&gt;system_cpu_dtb_walker_cache_cpu_side -->
<g id="edge5" class="edge">
<title>system_cpu_mmu_dtb_walker_port&#45;&gt;system_cpu_dtb_walker_cache_cpu_side</title>
<path fill="none" stroke="black" d="M718.06,-169.74C722.68,-148.65 730.55,-112.67 736.06,-87.46"/>
<polygon fill="black" stroke="black" points="739.44,-88.39 738.16,-77.88 732.6,-86.9 739.44,-88.39"/>
</g>
<!-- system_cpu_icache_mem_side -->
<g id="node7" class="node">
<title>system_cpu_icache_mem_side</title>
<path fill="#94918b" stroke="#000000" d="M921.16,-76C921.16,-76 865.41,-76 865.41,-76 859.41,-76 853.41,-70 853.41,-64 853.41,-64 853.41,-52 853.41,-52 853.41,-46 859.41,-40 865.41,-40 865.41,-40 921.16,-40 921.16,-40 927.16,-40 933.16,-46 933.16,-52 933.16,-52 933.16,-64 933.16,-64 933.16,-70 927.16,-76 921.16,-76"/>
<text xml:space="preserve" text-anchor="middle" x="893.29" y="-52.58" font-family="Arial" font-size="14.00" fill="#000000">mem_side</text>
</g>
<!-- system_cpu_dcache_mem_side -->
<g id="node9" class="node">
<title>system_cpu_dcache_mem_side</title>
<path fill="#94918b" stroke="#000000" d="M1139.16,-76C1139.16,-76 1083.41,-76 1083.41,-76 1077.41,-76 1071.41,-70 1071.41,-64 1071.41,-64 1071.41,-52 1071.41,-52 1071.41,-46 1077.41,-40 1083.41,-40 1083.41,-40 1139.16,-40 1139.16,-40 1145.16,-40 1151.16,-46 1151.16,-52 1151.16,-52 1151.16,-64 1151.16,-64 1151.16,-70 1145.16,-76 1139.16,-76"/>
<text xml:space="preserve" text-anchor="middle" x="1111.29" y="-52.58" font-family="Arial" font-size="14.00" fill="#000000">mem_side</text>
</g>
<!-- system_cpu_itb_walker_cache_mem_side -->
<g id="node11" class="node">
<title>system_cpu_itb_walker_cache_mem_side</title>
<path fill="#94918b" stroke="#000000" d="M485.16,-76C485.16,-76 429.41,-76 429.41,-76 423.41,-76 417.41,-70 417.41,-64 417.41,-64 417.41,-52 417.41,-52 417.41,-46 423.41,-40 429.41,-40 429.41,-40 485.16,-40 485.16,-40 491.16,-40 497.16,-46 497.16,-52 497.16,-52 497.16,-64 497.16,-64 497.16,-70 491.16,-76 485.16,-76"/>
<text xml:space="preserve" text-anchor="middle" x="457.29" y="-52.58" font-family="Arial" font-size="14.00" fill="#000000">mem_side</text>
</g>
<!-- system_cpu_dtb_walker_cache_mem_side -->
<g id="node13" class="node">
<title>system_cpu_dtb_walker_cache_mem_side</title>
<path fill="#94918b" stroke="#000000" d="M677.16,-76C677.16,-76 621.41,-76 621.41,-76 615.41,-76 609.41,-70 609.41,-64 609.41,-64 609.41,-52 609.41,-52 609.41,-46 615.41,-40 621.41,-40 621.41,-40 677.16,-40 677.16,-40 683.16,-40 689.16,-46 689.16,-52 689.16,-52 689.16,-64 689.16,-64 689.16,-70 683.16,-76 677.16,-76"/>
<text xml:space="preserve" text-anchor="middle" x="649.29" y="-52.58" font-family="Arial" font-size="14.00" fill="#000000">mem_side</text>
</g>
<!-- system_cpu_interrupts_int_requestor -->
<g id="node14" class="node">
<title>system_cpu_interrupts_int_requestor</title>
<path fill="#94918b" stroke="#000000" d="M863.66,-206C863.66,-206 792.91,-206 792.91,-206 786.91,-206 780.91,-200 780.91,-194 780.91,-194 780.91,-182 780.91,-182 780.91,-176 786.91,-170 792.91,-170 792.91,-170 863.66,-170 863.66,-170 869.66,-170 875.66,-176 875.66,-182 875.66,-182 875.66,-194 875.66,-194 875.66,-200 869.66,-206 863.66,-206"/>
<text xml:space="preserve" text-anchor="middle" x="828.29" y="-182.57" font-family="Arial" font-size="14.00" fill="#000000">int_requestor</text>
</g>
<!-- system_cpu_interrupts_int_responder -->
<g id="node15" class="node">
<title>system_cpu_interrupts_int_responder</title>
<path fill="#94918b" stroke="#000000" d="M980.54,-206C980.54,-206 906.04,-206 906.04,-206 900.04,-206 894.04,-200 894.04,-194 894.04,-194 894.04,-182 894.04,-182 894.04,-176 900.04,-170 906.04,-170 906.04,-170 980.54,-170 980.54,-170 986.54,-170 992.54,-176 992.54,-182 992.54,-182 992.54,-194 992.54,-194 992.54,-200 986.54,-206 980.54,-206"/>
<text xml:space="preserve" text-anchor="middle" x="943.29" y="-182.57" font-family="Arial" font-size="14.00" fill="#000000">int_responder</text>
</g>
<!-- system_cpu_interrupts_pio -->
<g id="node16" class="node">
<title>system_cpu_interrupts_pio</title>
<path fill="#94918b" stroke="#000000" d="M1052.29,-206C1052.29,-206 1022.29,-206 1022.29,-206 1016.29,-206 1010.29,-200 1010.29,-194 1010.29,-194 1010.29,-182 1010.29,-182 1010.29,-176 1016.29,-170 1022.29,-170 1022.29,-170 1052.29,-170 1052.29,-170 1058.29,-170 1064.29,-176 1064.29,-182 1064.29,-182 1064.29,-194 1064.29,-194 1064.29,-200 1058.29,-206 1052.29,-206"/>
<text xml:space="preserve" text-anchor="middle" x="1037.29" y="-182.57" font-family="Arial" font-size="14.00" fill="#000000">pio</text>
</g>
<!-- system_membus_cpu_side_ports&#45;&gt;system_cpu_interrupts_int_requestor -->
<g id="edge7" class="edge">
<title>system_membus_cpu_side_ports&#45;&gt;system_cpu_interrupts_int_requestor</title>
<path fill="none" stroke="black" d="M815.07,-400.45C818.21,-350.19 824.64,-247.4 827.2,-206.43"/>
<polygon fill="black" stroke="black" points="811.59,-400.03 814.46,-410.23 818.58,-400.47 811.59,-400.03"/>
</g>
<!-- system_l2_mem_side -->
<g id="node20" class="node">
<title>system_l2_mem_side</title>
<path fill="#94918b" stroke="#000000" d="M106.16,-76C106.16,-76 50.41,-76 50.41,-76 44.41,-76 38.41,-70 38.41,-64 38.41,-64 38.41,-52 38.41,-52 38.41,-46 44.41,-40 50.41,-40 50.41,-40 106.16,-40 106.16,-40 112.16,-40 118.16,-46 118.16,-52 118.16,-52 118.16,-64 118.16,-64 118.16,-70 112.16,-76 106.16,-76"/>
<text xml:space="preserve" text-anchor="middle" x="78.29" y="-52.58" font-family="Arial" font-size="14.00" fill="#000000">mem_side</text>
</g>
<!-- system_membus_cpu_side_ports&#45;&gt;system_l2_mem_side -->
<g id="edge6" class="edge">
<title>system_membus_cpu_side_ports&#45;&gt;system_l2_mem_side</title>
<path fill="none" stroke="black" d="M747.98,-428.65C565.62,-427.34 62.67,-421.45 38.29,-396 -48.75,-305.18 37.21,-131.45 68.15,-76.27"/>
<polygon fill="black" stroke="black" points="747.73,-432.15 757.75,-428.71 747.77,-425.15 747.73,-432.15"/>
</g>
<!-- system_membus_mem_side_ports -->
<g id="node18" class="node">
<title>system_membus_mem_side_ports</title>
<path fill="#586070" stroke="#000000" d="M989.91,-448C989.91,-448 896.66,-448 896.66,-448 890.66,-448 884.66,-442 884.66,-436 884.66,-436 884.66,-424 884.66,-424 884.66,-418 890.66,-412 896.66,-412 896.66,-412 989.91,-412 989.91,-412 995.91,-412 1001.91,-418 1001.91,-424 1001.91,-424 1001.91,-436 1001.91,-436 1001.91,-442 995.91,-448 989.91,-448"/>
<text xml:space="preserve" text-anchor="middle" x="943.29" y="-424.57" font-family="Arial" font-size="14.00" fill="#000000">mem_side_ports</text>
</g>
<!-- system_membus_mem_side_ports&#45;&gt;system_cpu_interrupts_int_responder -->
<g id="edge9" class="edge">
<title>system_membus_mem_side_ports&#45;&gt;system_cpu_interrupts_int_responder</title>
<path fill="none" stroke="black" d="M943.29,-411.74C943.29,-370.93 943.29,-268.15 943.29,-217.76"/>
<polygon fill="black" stroke="black" points="946.79,-217.94 943.29,-207.94 939.79,-217.94 946.79,-217.94"/>
</g>
<!-- system_membus_mem_side_ports&#45;&gt;system_cpu_interrupts_pio -->
<g id="edge8" class="edge">
<title>system_membus_mem_side_ports&#45;&gt;system_cpu_interrupts_pio</title>
<path fill="none" stroke="black" d="M984.73,-411.59C991.08,-407.32 996.96,-402.16 1001.29,-396 1039.37,-341.84 1041.55,-260.42 1039.59,-217.62"/>
<polygon fill="black" stroke="black" points="1043.1,-217.68 1039.03,-207.9 1036.11,-218.08 1043.1,-217.68"/>
</g>
<!-- system_mem_ctrls_port -->
<g id="node23" class="node">
<title>system_mem_ctrls_port</title>
<path fill="#94918b" stroke="#000000" d="M373.29,-206C373.29,-206 343.29,-206 343.29,-206 337.29,-206 331.29,-200 331.29,-194 331.29,-194 331.29,-182 331.29,-182 331.29,-176 337.29,-170 343.29,-170 343.29,-170 373.29,-170 373.29,-170 379.29,-170 385.29,-176 385.29,-182 385.29,-182 385.29,-194 385.29,-194 385.29,-200 379.29,-206 373.29,-206"/>
<text xml:space="preserve" text-anchor="middle" x="358.29" y="-182.57" font-family="Arial" font-size="14.00" fill="#000000">port</text>
</g>
<!-- system_membus_mem_side_ports&#45;&gt;system_mem_ctrls_port -->
<g id="edge10" class="edge">
<title>system_membus_mem_side_ports&#45;&gt;system_mem_ctrls_port</title>
<path fill="none" stroke="black" d="M903.17,-411.53C894.47,-408.45 885.19,-405.69 876.29,-404 863.87,-401.65 431.38,-403.61 421.29,-396 365.55,-353.94 357.54,-263.82 357.33,-217.61"/>
<polygon fill="black" stroke="black" points="360.83,-217.88 357.42,-207.85 353.83,-217.82 360.83,-217.88"/>
</g>
<!-- system_l2_cpu_side -->
<g id="node19" class="node">
<title>system_l2_cpu_side</title>
<path fill="#94918b" stroke="#000000" d="M194.29,-76C194.29,-76 148.29,-76 148.29,-76 142.29,-76 136.29,-70 136.29,-64 136.29,-64 136.29,-52 136.29,-52 136.29,-46 142.29,-40 148.29,-40 148.29,-40 194.29,-40 194.29,-40 200.29,-40 206.29,-46 206.29,-52 206.29,-52 206.29,-64 206.29,-64 206.29,-70 200.29,-76 194.29,-76"/>
<text xml:space="preserve" text-anchor="middle" x="171.29" y="-52.58" font-family="Arial" font-size="14.00" fill="#000000">cpu_side</text>
</g>
<!-- system_tol2bus_cpu_side_ports -->
<g id="node21" class="node">
<title>system_tol2bus_cpu_side_ports</title>
<path fill="#586070" stroke="#000000" d="M281.04,-206C281.04,-206 197.54,-206 197.54,-206 191.54,-206 185.54,-200 185.54,-194 185.54,-194 185.54,-182 185.54,-182 185.54,-176 191.54,-170 197.54,-170 197.54,-170 281.04,-170 281.04,-170 287.04,-170 293.04,-176 293.04,-182 293.04,-182 293.04,-194 293.04,-194 293.04,-200 287.04,-206 281.04,-206"/>
<text xml:space="preserve" text-anchor="middle" x="239.29" y="-182.57" font-family="Arial" font-size="14.00" fill="#000000">cpu_side_ports</text>
</g>
<!-- system_tol2bus_cpu_side_ports&#45;&gt;system_cpu_icache_mem_side -->
<g id="edge11" class="edge">
<title>system_tol2bus_cpu_side_ports&#45;&gt;system_cpu_icache_mem_side</title>
<path fill="none" stroke="black" d="M270.01,-163.41C280.62,-156.53 292.96,-149.83 305.29,-146 510.94,-82.12 583.61,-187.3 789.29,-123.5 820.94,-113.68 852.64,-91.88 872.57,-76.34"/>
<polygon fill="black" stroke="black" points="268.33,-160.32 262.05,-168.85 272.28,-166.1 268.33,-160.32"/>
</g>
<!-- system_tol2bus_cpu_side_ports&#45;&gt;system_cpu_dcache_mem_side -->
<g id="edge12" class="edge">
<title>system_tol2bus_cpu_side_ports&#45;&gt;system_cpu_dcache_mem_side</title>
<path fill="none" stroke="black" d="M269.98,-163.3C280.59,-156.41 292.93,-149.73 305.29,-146 460.23,-99.19 881.86,-180.66 1033.29,-123.5 1058.93,-113.82 1082.29,-91.99 1096.62,-76.41"/>
<polygon fill="black" stroke="black" points="268.28,-160.21 262.02,-168.75 272.24,-165.99 268.28,-160.21"/>
</g>
<!-- system_tol2bus_cpu_side_ports&#45;&gt;system_cpu_itb_walker_cache_mem_side -->
<g id="edge13" class="edge">
<title>system_tol2bus_cpu_side_ports&#45;&gt;system_cpu_itb_walker_cache_mem_side</title>
<path fill="none" stroke="black" d="M276.27,-163.7C285.69,-157.86 295.83,-151.64 305.29,-146 346.81,-121.23 395.39,-93.67 426.24,-76.34"/>
<polygon fill="black" stroke="black" points="274.69,-160.56 268.05,-168.82 278.39,-166.5 274.69,-160.56"/>
</g>
<!-- system_tol2bus_cpu_side_ports&#45;&gt;system_cpu_dtb_walker_cache_mem_side -->
<g id="edge14" class="edge">
<title>system_tol2bus_cpu_side_ports&#45;&gt;system_cpu_dtb_walker_cache_mem_side</title>
<path fill="none" stroke="black" d="M270.66,-163.26C281.15,-156.52 293.24,-149.94 305.29,-146 367.14,-125.75 539.7,-153.82 597.29,-123.5 617.02,-113.11 631.92,-91.66 640.6,-76.35"/>
<polygon fill="black" stroke="black" points="268.73,-160.34 262.41,-168.84 272.65,-166.14 268.73,-160.34"/>
</g>
<!-- system_tol2bus_mem_side_ports -->
<g id="node22" class="node">
<title>system_tol2bus_mem_side_ports</title>
<path fill="#586070" stroke="#000000" d="M155.91,-206C155.91,-206 62.66,-206 62.66,-206 56.66,-206 50.66,-200 50.66,-194 50.66,-194 50.66,-182 50.66,-182 50.66,-176 56.66,-170 62.66,-170 62.66,-170 155.91,-170 155.91,-170 161.91,-170 167.91,-176 167.91,-182 167.91,-182 167.91,-194 167.91,-194 167.91,-200 161.91,-206 155.91,-206"/>
<text xml:space="preserve" text-anchor="middle" x="109.29" y="-182.57" font-family="Arial" font-size="14.00" fill="#000000">mem_side_ports</text>
</g>
<!-- system_tol2bus_mem_side_ports&#45;&gt;system_l2_cpu_side -->
<g id="edge15" class="edge">
<title>system_tol2bus_mem_side_ports&#45;&gt;system_l2_cpu_side</title>
<path fill="none" stroke="black" d="M117.65,-169.74C128,-148.36 145.77,-111.69 158,-86.44"/>
<polygon fill="black" stroke="black" points="160.99,-88.29 162.2,-77.76 154.69,-85.23 160.99,-88.29"/>
</g>
</g>
</svg>
